<svg width="32" height="32" viewBox="0 0 32 32" fill="none" xmlns="http://www.w3.org/2000/svg">
<path fill-rule="evenodd" clip-rule="evenodd" d="M22.5857 4C24.3737 4 26.0937 4.70667 27.359 5.97467C28.6257 7.24 29.3337 8.94667 29.3337 10.7333V21.2667C29.3337 24.9867 26.307 28 22.5857 28H9.41366C5.69233 28 2.66699 24.9867 2.66699 21.2667V10.7333C2.66699 7.01333 5.67899 4 9.41366 4H22.5857ZM24.707 12.72L24.8137 12.6133C25.1323 12.2267 25.1323 11.6667 24.799 11.28C24.6137 11.0813 24.359 10.96 24.0937 10.9333C23.8137 10.9187 23.547 11.0133 23.3457 11.2L17.3337 16C16.5603 16.6413 15.4523 16.6413 14.667 16L8.66699 11.2C8.25233 10.8933 7.67899 10.9333 7.33366 11.2933C6.97366 11.6533 6.93366 12.2267 7.23899 12.6267L7.41366 12.8L13.4803 17.5333C14.227 18.12 15.1323 18.44 16.0803 18.44C17.0257 18.44 17.947 18.12 18.6923 17.5333L24.707 12.72Z" fill="#1AADB6"/>
</svg>
