<svg width="32" height="32" viewBox="0 0 32 32" fill="none" xmlns="http://www.w3.org/2000/svg">
<path d="M14.1308 2.67992L26.1308 5.34659C26.2819 5.37679 26.4179 5.45837 26.5156 5.57748C26.6133 5.69659 26.6667 5.84586 26.6668 5.99992V25.9999C26.6667 26.154 26.6133 26.3033 26.5156 26.4224C26.4179 26.5415 26.2819 26.6231 26.1308 26.6533L14.1308 29.3199C14.0341 29.3392 13.9344 29.3369 13.8387 29.313C13.7431 29.2891 13.6539 29.2443 13.5776 29.1819C13.5014 29.1194 13.4399 29.0407 13.3977 28.9516C13.3555 28.8625 13.3336 28.7652 13.3335 28.6666V3.33326C13.3336 3.23466 13.3555 3.13731 13.3977 3.04821C13.4399 2.95911 13.5014 2.88048 13.5776 2.81799C13.6539 2.75551 13.7431 2.71071 13.8387 2.68683C13.9344 2.66296 14.0341 2.6606 14.1308 2.67992ZM12.0002 5.33326V26.6666H6.3335C6.09185 26.6666 5.85837 26.5791 5.67626 26.4202C5.49414 26.2614 5.37569 26.042 5.34283 25.8026L5.3335 25.6666V6.33326C5.33351 6.09161 5.42102 5.85813 5.57985 5.67602C5.73868 5.4939 5.95809 5.37545 6.1975 5.34259L6.3335 5.33326H12.0002ZM17.3335 14.6666C16.9799 14.6666 16.6407 14.8071 16.3907 15.0571C16.1406 15.3072 16.0002 15.6463 16.0002 15.9999C16.0002 16.3535 16.1406 16.6927 16.3907 16.9427C16.6407 17.1928 16.9799 17.3333 17.3335 17.3333C17.6871 17.3333 18.0263 17.1928 18.2763 16.9427C18.5264 16.6927 18.6668 16.3535 18.6668 15.9999C18.6668 15.6463 18.5264 15.3072 18.2763 15.0571C18.0263 14.8071 17.6871 14.6666 17.3335 14.6666Z" fill="#1AADB6"/>
</svg>
