<svg width="24" height="24" viewBox="0 0 24 24" fill="none" xmlns="http://www.w3.org/2000/svg">
<g clip-path="url(#clip0_767_17481)">
<path d="M23.0274 12.2244C23.0274 11.2412 22.949 10.5236 22.7794 9.77954H11.749V14.2175H18.2236C18.0931 15.3204 17.3882 16.9814 15.8217 18.0975L15.7998 18.246L19.2874 20.9962L19.529 21.0208C21.7481 18.9346 23.0274 15.8652 23.0274 12.2244Z" fill="#4285F4"/>
<path d="M11.7491 23.9176C14.9211 23.9176 17.584 22.8545 19.5291 21.0209L15.8218 18.0976C14.8297 18.8018 13.4982 19.2934 11.7491 19.2934C8.64233 19.2934 6.00551 17.2074 5.06556 14.324L4.92778 14.3359L1.30133 17.1927L1.25391 17.3269C3.18583 21.2334 7.15415 23.9176 11.7491 23.9176Z" fill="#34A853"/>
<path d="M5.06574 14.324C4.81773 13.58 4.67419 12.7826 4.67419 11.9589C4.67419 11.135 4.81773 10.3378 5.05269 9.59366L5.04612 9.43519L1.37423 6.53247L1.2541 6.59064C0.457859 8.21174 0.000976562 10.0322 0.000976562 11.9589C0.000976562 13.8855 0.457859 15.7059 1.2541 17.327L5.06574 14.324Z" fill="#FBBC05"/>
<path d="M11.7491 4.62403C13.9551 4.62403 15.4432 5.59401 16.2917 6.40461L19.6073 3.10928C17.571 1.1826 14.9211 0 11.7491 0C7.15415 0 3.18583 2.68406 1.25391 6.59056L5.0525 9.59359C6.00551 6.7102 8.64232 4.62403 11.7491 4.62403Z" fill="#EB4335"/>
</g>
<defs>
<clipPath id="clip0_767_17481">
<rect width="23.04" height="24" fill="white"/>
</clipPath>
</defs>
</svg>
