<svg width="32" height="32" viewBox="0 0 32 32" fill="none" xmlns="http://www.w3.org/2000/svg">
<g clip-path="url(#clip0_761_15691)">
<path d="M16 4C9.33333 4 4 9.33333 4 16C4 22.6667 9.33333 28 16 28C22.6667 28 28 22.6667 28 16C28 9.33333 22.6667 4 16 4ZM16 25.3333C10.8 25.3333 6.66667 21.2 6.66667 16C6.66667 10.8 10.8 6.66667 16 6.66667C21.2 6.66667 25.3333 10.8 25.3333 16C25.3333 21.2 21.2 25.3333 16 25.3333ZM27.3333 27.3333C30.2667 24.4 32 20.4 32 16C32 11.6 30.2667 7.6 27.3333 4.66667L25.8667 6.13333C28.4 8.66667 30 12.1333 30 16C30 19.8667 28.4 23.3333 25.8667 25.8667L27.3333 27.3333ZM6.13333 25.8667C3.6 23.3333 2 19.8667 2 16C2 12.1333 3.6 8.66667 6.13333 6.13333L4.66667 4.66667C1.73333 7.6 0 11.6 0 16C0 20.4 1.73333 24.4 4.66667 27.3333L6.13333 25.8667ZM12.6667 9.33333V22.6667H15.3333V17.3333H18C18.7072 17.3333 19.3855 17.0524 19.8856 16.5523C20.3857 16.0522 20.6667 15.3739 20.6667 14.6667V12C20.6667 11.2928 20.3857 10.6145 19.8856 10.1144C19.3855 9.61428 18.7072 9.33333 18 9.33333H12.6667ZM15.3333 12H18V14.6667H15.3333V12Z" fill="#1AADB6"/>
</g>
<defs>
<clipPath id="clip0_761_15691">
<rect width="32" height="32" fill="white"/>
</clipPath>
</defs>
</svg>
