<svg width="32" height="32" viewBox="0 0 32 32" fill="none" xmlns="http://www.w3.org/2000/svg">
<path d="M23.7122 14.2771C24.5201 15.0948 25.1966 16.0325 25.7176 17.0571C25.8662 17.3704 25.887 17.7294 25.7754 18.0577C25.6638 18.3861 25.4287 18.658 25.1199 18.8159C24.8111 18.9737 24.453 19.0051 24.1215 18.9032C23.7899 18.8014 23.5112 18.5744 23.3442 18.2705C22.9497 17.4945 22.4379 16.7839 21.8269 16.1638C20.9142 15.2507 19.7981 14.567 18.5701 14.1685C17.3421 13.77 16.0371 13.6682 14.7622 13.8714C13.4873 14.0746 12.2786 14.5771 11.2354 15.3376C10.1921 16.098 9.34388 17.0949 8.76023 18.2465C8.59603 18.5539 8.31796 18.7848 7.98559 18.8898C7.65322 18.9947 7.29297 18.9653 6.982 18.8079C6.67102 18.6505 6.43404 18.3776 6.32182 18.0476C6.20959 17.7176 6.23104 17.3568 6.38157 17.0425C7.15544 15.515 8.28027 14.1926 9.66386 13.1837C11.0474 12.1748 12.6504 11.5081 14.3414 11.2383C16.0324 10.9685 17.7632 11.1032 19.3921 11.6314C21.0209 12.1596 22.5014 13.0663 23.7122 14.2771ZM20.9802 18.2665C21.5936 18.8798 22.0976 19.6318 22.4496 20.4318C22.5915 20.7557 22.599 21.1228 22.4704 21.4522C22.3417 21.7816 22.0875 22.0465 21.7636 22.1885C21.4396 22.3304 21.0726 22.3379 20.7432 22.2093C20.4137 22.0806 20.1489 21.8264 20.0069 21.5025C19.7881 21.0003 19.4789 20.5425 19.0949 20.1518C18.2865 19.3435 17.1901 18.8893 16.0469 18.8893C14.9037 18.8893 13.8073 19.3435 12.9989 20.1518C12.6199 20.5367 12.316 20.9888 12.1029 21.4851C12.0341 21.6476 11.9337 21.7948 11.8076 21.9182C11.6815 22.0416 11.5321 22.1387 11.3682 22.2039C11.2042 22.2692 11.029 22.3012 10.8526 22.2982C10.6762 22.2952 10.5021 22.2572 10.3405 22.1865C10.1788 22.1157 10.0329 22.0136 9.91099 21.886C9.78913 21.7584 9.69379 21.6079 9.63052 21.4432C9.56725 21.2785 9.5373 21.1029 9.5424 20.9265C9.5475 20.7502 9.58755 20.5766 9.66023 20.4158C10.0065 19.6151 10.4994 18.8861 11.1136 18.2665C12.422 16.9582 14.1966 16.2232 16.0469 16.2232C17.8972 16.2232 19.6718 16.9582 20.9802 18.2665ZM27.2256 11.0651C27.9029 11.7425 28.5416 12.5145 29.0976 13.3198C29.2955 13.6109 29.3703 13.9685 29.3057 14.3145C29.241 14.6606 29.0421 14.967 28.7524 15.167C28.4627 15.3669 28.1056 15.4442 27.7591 15.3819C27.4126 15.3196 27.1048 15.1228 26.9029 14.8345C26.4362 14.1598 25.9002 13.5105 25.3402 12.9505C20.1776 7.7878 11.8069 7.7878 6.6429 12.9505C6.1109 13.4825 5.58023 14.1318 5.09623 14.8305C4.89467 15.1211 4.58589 15.3198 4.23782 15.3829C3.88975 15.4459 3.53091 15.368 3.24023 15.1665C2.94956 14.9649 2.75085 14.6561 2.68784 14.3081C2.62483 13.96 2.70267 13.6011 2.90423 13.3105C3.4749 12.4865 4.10557 11.7171 4.75757 11.0651C10.9616 4.8598 21.0216 4.8598 27.2256 11.0651ZM17.4162 21.9211C17.7916 22.2965 18.0025 22.8056 18.0025 23.3365C18.0025 23.8673 17.7916 24.3764 17.4162 24.7518C17.0409 25.1272 16.5318 25.338 16.0009 25.338C15.47 25.338 14.9609 25.1272 14.5856 24.7518C14.2102 24.3764 13.9993 23.8673 13.9993 23.3365C13.9993 22.8056 14.2102 22.2965 14.5856 21.9211C14.9609 21.5458 15.47 21.3349 16.0009 21.3349C16.5318 21.3349 17.0409 21.5458 17.4162 21.9211Z" fill="#1AADB6"/>
</svg>
