<svg width="61" height="18" viewBox="0 0 61 18" fill="none" xmlns="http://www.w3.org/2000/svg">
<path fill-rule="evenodd" clip-rule="evenodd" d="M24.9067 5.85534C24.5519 6.39605 24.3727 7.03352 24.3937 7.68023L24.3917 7.67772C24.3917 9.59885 25.6087 10.5598 27.1749 10.5654C27.7556 10.5986 28.3359 10.4944 28.8684 10.2607C29.4014 10.027 29.8718 9.67036 30.241 9.22048C30.5183 9.69364 30.8803 10.112 31.3081 10.4545C31.3779 10.4921 31.4565 10.5084 31.535 10.5007C31.6136 10.4929 31.688 10.4617 31.7486 10.4113L31.7517 10.4143C32.124 10.0889 32.7977 9.5004 33.1757 9.18732C33.208 9.15581 33.2342 9.11808 33.2527 9.07638C33.2707 9.03469 33.2804 8.98981 33.2809 8.94437C33.282 8.89887 33.2737 8.85358 33.2568 8.81132C33.2404 8.76901 33.2152 8.73051 33.1834 8.69786C32.7438 8.23503 32.4953 7.62297 32.4876 6.98442V4.10273C32.4876 4.00744 32.4881 3.91275 32.4886 3.81875V3.81867V3.81859V3.81852V3.81844C32.4945 2.7101 32.5 1.69709 31.6665 0.922346C30.8726 0.290383 29.8785 -0.035752 28.8653 0.00311269C27.0958 0.00311269 25.1167 0.656513 24.7059 2.83057C24.6967 2.87443 24.6967 2.91982 24.7059 2.96362C24.7157 3.00742 24.7337 3.04865 24.7593 3.0851C24.7855 3.12155 24.8189 3.15249 24.8569 3.17547C24.8954 3.19845 24.938 3.2129 24.9827 3.21866L26.7841 3.41092C26.8678 3.39725 26.9448 3.35694 27.0034 3.29597C27.0619 3.235 27.0989 3.1565 27.1096 3.07255C27.1821 2.73758 27.3736 2.44074 27.6483 2.23665C27.9235 2.03256 28.2635 1.93555 28.6045 1.96357C28.8037 1.95391 29.0024 1.99272 29.1837 2.07652C29.365 2.16031 29.5231 2.28631 29.6453 2.4445C29.8518 2.85767 29.9308 3.32312 29.8733 3.78142V4.01687C29.6967 4.03708 29.5113 4.05607 29.3202 4.07564L29.3201 4.07564L29.3201 4.07565L29.32 4.07565L29.32 4.07566C28.344 4.17559 27.2205 4.29065 26.3758 4.65948C25.775 4.89698 25.2615 5.31458 24.9067 5.85534ZM0.516481 5.85835C0.161649 6.3986 -0.018077 7.03534 0.00143616 7.68175V7.68124C0.00143616 9.60031 1.22152 10.5598 2.7872 10.5655C3.36848 10.5991 3.94925 10.4949 4.48227 10.2612C5.01529 10.0275 5.48566 9.67074 5.85487 9.22051C6.13165 9.69413 6.49367 10.1126 6.92244 10.4545C6.99125 10.4928 7.06982 10.5096 7.14787 10.5022C7.22644 10.4948 7.3009 10.4634 7.36149 10.4128L7.36714 10.4159C7.73789 10.0899 8.41058 9.503 8.79262 9.18889C8.82497 9.15697 8.85116 9.11887 8.86914 9.07692C8.8866 9.03492 8.89635 8.98999 8.89635 8.94439C8.89687 8.89874 8.88814 8.85309 8.87119 8.81083C8.85424 8.76858 8.82857 8.73033 8.79622 8.69789C8.35461 8.23609 8.10453 7.62376 8.09631 6.98445V4.10275C8.09631 4.00534 8.09686 3.90857 8.0974 3.8125L8.0974 3.81213C8.10363 2.70626 8.10932 1.69564 7.27881 0.92237C6.48442 0.290252 5.48977 -0.0358828 4.47508 0.00313615C2.70555 0.00313615 0.732666 0.656537 0.315701 2.8306C0.307485 2.87429 0.307998 2.91959 0.317241 2.96313C0.326484 3.00667 0.344457 3.0478 0.370132 3.08414C0.395807 3.12044 0.428671 3.15082 0.466671 3.17401C0.50467 3.19719 0.547291 3.21241 0.590939 3.21868L2.40001 3.41095C2.48269 3.3964 2.55869 3.35589 2.6162 3.29497C2.67422 3.2341 2.71068 3.15591 2.72095 3.07258C2.79438 2.73765 2.98592 2.44072 3.26116 2.23668C3.5364 2.03264 3.87634 1.93578 4.2173 1.9636C4.41706 1.95419 4.61578 1.9928 4.79705 2.07654C4.97883 2.16028 5.13699 2.28649 5.25972 2.44452C5.46409 2.85836 5.54214 3.32345 5.48463 3.78145V4.01942C5.30306 4.04057 5.11202 4.06037 4.91501 4.08079C3.94362 4.18149 2.82716 4.29723 1.98613 4.66351C1.38482 4.90081 0.871825 5.31815 0.516481 5.85835ZM46.8117 0.089934C44.1213 0.089934 42.6291 2.38732 42.6287 5.33716C42.6291 8.2716 44.1007 10.6271 46.8117 10.6291C49.4157 10.6291 51.0661 8.33286 51.0661 5.43959C51.0738 2.44505 49.5754 0.089934 46.8117 0.089934ZM37.8144 16.3799C38.238 15.3353 39.1798 12.9909 38.7351 12.4213C38.2981 11.8615 35.8698 12.144 34.7193 12.2779L34.6599 12.2848C34.3169 12.3254 34.2671 12.0277 34.5731 11.8149C36.5712 10.4212 39.8453 10.8239 40.2248 11.2928C40.6042 11.7616 40.1282 15.0291 38.2493 16.5827C38.1707 16.6552 38.0701 16.6984 37.9638 16.7056C37.8159 16.7066 37.7317 16.5822 37.8149 16.3779L37.8144 16.3799ZM8.60243 12.0123C8.27584 11.7188 8.56803 11.3176 8.9624 11.5495C13.7739 14.2823 19.2125 15.7159 24.7444 15.7098C28.8792 15.691 32.9697 14.8594 36.784 13.2619C37.3756 13.0157 37.8665 13.6531 37.2904 14.0772C33.7985 16.6368 28.7374 17.9996 24.3778 17.9996C18.5598 18.0315 12.9374 15.8978 8.60243 12.0123ZM45.3737 5.04092V5.07573C45.3735 6.24843 45.3732 8.67416 46.8166 8.67416C48.2632 8.67416 48.332 6.67946 48.3263 5.46262C48.3571 4.61469 48.2632 3.76656 48.048 2.94593C47.9895 2.67192 47.8344 2.42835 47.611 2.25968C47.3876 2.09095 47.1109 2.00896 46.8315 2.02824C45.4625 2.02875 45.3737 3.87914 45.3737 5.03892V5.04092ZM2.72354 7.36118C2.72354 8.16109 3.13896 8.70011 3.85324 8.70011C4.12335 8.68885 4.38523 8.60516 4.61169 8.45762C4.83763 8.31007 5.02044 8.10423 5.13957 7.86169C5.43894 7.2542 5.56013 6.57386 5.48875 5.90025V5.50163C4.14183 5.49906 2.72148 5.78453 2.72148 7.35866L2.72354 7.36118ZM27.0996 7.36118C27.0996 8.16109 27.5176 8.70011 28.2334 8.70011C28.503 8.68813 28.7643 8.60413 28.9898 8.45664C29.2157 8.30915 29.398 8.10367 29.5171 7.86169C29.8165 7.2542 29.9377 6.57386 29.8663 5.90025V5.50163C28.5179 5.49906 27.0975 5.78453 27.0975 7.35866L27.0996 7.36118ZM57.6639 10.3392C57.7235 10.3938 57.8 10.4263 57.8801 10.4316L59.7498 10.4356C59.835 10.4361 59.9182 10.4062 59.9839 10.3513C60.0496 10.2963 60.0938 10.2198 60.1087 10.1354V4.16268V4.15978C60.1087 3.24184 60.1087 1.96875 59.6214 1.20871C59.3882 0.848076 59.0647 0.55474 58.6832 0.358257C58.3017 0.161774 57.8755 0.0687248 57.4472 0.0886712C56.165 0.0886712 55.4312 0.708399 54.9131 2.00441H54.8838V0.555048C54.8638 0.48066 54.8211 0.414395 54.7611 0.366277C54.701 0.318158 54.627 0.291015 54.5505 0.287982H52.8262C52.7384 0.28536 52.6531 0.315279 52.5864 0.372291C52.5201 0.429355 52.4775 0.509243 52.4667 0.596226L52.4688 10.0867C52.4708 10.1763 52.5063 10.262 52.5689 10.3261C52.631 10.3903 52.7163 10.4278 52.8056 10.4316H54.6543C54.7005 10.4329 54.7467 10.4252 54.7903 10.4085C54.834 10.3918 54.8735 10.3668 54.9074 10.3347C54.9413 10.3026 54.9685 10.2643 54.9875 10.2217C55.0065 10.1792 55.0168 10.1333 55.0183 10.0867V4.98049C54.9824 4.36606 55.0835 3.75131 55.3151 3.18119C55.4029 2.96435 55.5519 2.77754 55.7429 2.643C55.9344 2.50852 56.1604 2.43176 56.3935 2.42261C57.5749 2.42261 57.5632 3.7103 57.554 4.72462C57.5532 4.81158 57.5525 4.89653 57.5525 4.97848V10.1314C57.5648 10.2113 57.6043 10.2847 57.6639 10.3392ZM20.5534 10.4298C20.4645 10.4249 20.3808 10.387 20.3192 10.3234C20.2571 10.2598 20.2211 10.1752 20.2186 10.0864V5.05652C20.2458 4.46296 20.2288 3.86822 20.1672 3.27728C20.1292 3.02424 19.9931 2.7962 19.7882 2.6432C19.5834 2.49026 19.3266 2.42492 19.074 2.46096C18.8331 2.46795 18.599 2.54517 18.4018 2.68341C18.2041 2.82159 18.0516 3.01458 17.9622 3.23862C17.8077 3.83146 17.7496 4.44527 17.7902 5.05652V10.0864C17.7892 10.1326 17.7789 10.1781 17.7604 10.2204C17.7414 10.2627 17.7147 10.301 17.6813 10.3329C17.648 10.3648 17.6089 10.3895 17.5658 10.4062C17.5227 10.4228 17.4765 10.431 17.4308 10.4298H15.5729C15.4841 10.4257 15.3998 10.3881 15.3377 10.3243C15.2751 10.2606 15.2391 10.1756 15.2371 10.0864V5.05652C15.2371 4.95037 15.2388 4.83921 15.2406 4.72511L15.2406 4.72495C15.2565 3.70134 15.276 2.44143 14.0873 2.44143C12.802 2.44143 12.8045 3.84798 12.8065 4.93219L12.8066 5.05652V10.0874C12.8051 10.1335 12.7948 10.1787 12.7764 10.221C12.7579 10.2631 12.7312 10.3011 12.6978 10.3329C12.6644 10.3647 12.6249 10.3896 12.5817 10.4062C12.5386 10.4228 12.4929 10.431 12.4467 10.4298H10.5852C10.5015 10.4271 10.4214 10.3942 10.3603 10.3369C10.2992 10.2796 10.2607 10.2016 10.2525 10.118V0.630566C10.2535 0.584453 10.2633 0.539214 10.2823 0.497007C10.3007 0.454801 10.3274 0.416862 10.3608 0.385091C10.3942 0.35327 10.4337 0.328337 10.4769 0.311783C10.5195 0.29523 10.5657 0.286953 10.6119 0.288187H12.3455C12.4308 0.2905 12.5124 0.324275 12.5745 0.383035C12.6372 0.441846 12.6757 0.521581 12.6829 0.60697V1.84499H12.7147C12.8703 1.32139 13.1954 0.864372 13.639 0.546205C14.0822 0.228039 14.6193 0.0668221 15.1641 0.0878481C16.3288 0.0878481 17.0585 0.648714 17.5781 1.84499C17.7543 1.39321 18.0459 0.995823 18.4239 0.692822C18.8023 0.389821 19.2532 0.19195 19.7323 0.119002C20.2114 0.0460531 20.7007 0.100443 21.1521 0.277134C21.603 0.453773 21.9999 0.746698 22.3019 1.12558C22.8056 1.80873 22.7899 2.75801 22.7751 3.65513V3.65514C22.7726 3.8051 22.7702 3.95359 22.7702 4.09914L22.7681 10.0864C22.7671 10.1326 22.7568 10.1782 22.7378 10.2204C22.7193 10.2627 22.6926 10.3005 22.6592 10.3324C22.6259 10.3643 22.5863 10.3895 22.5437 10.4062C22.5006 10.4228 22.4544 10.4309 22.4081 10.4298H20.5534ZM34.3968 8.47149V9.84908L34.3948 9.84707C34.3974 9.93303 34.4307 10.0149 34.4893 10.078C34.5478 10.1411 34.6269 10.181 34.7127 10.19C34.7537 10.1898 34.7943 10.1787 34.8308 10.1584C35.829 9.64499 36.9346 9.37669 38.0571 9.3752C39.1791 9.37365 40.2857 9.63918 41.2855 10.1498C41.3358 10.1702 41.3908 10.1778 41.4442 10.1719C41.4981 10.166 41.55 10.1465 41.5941 10.1157C41.6388 10.0848 41.6753 10.0435 41.6999 9.99518C41.7245 9.94686 41.7369 9.89283 41.7353 9.83854V8.3897C41.7317 8.28092 41.6994 8.17471 41.6419 8.08243C41.5844 7.99015 41.5032 7.91484 41.4077 7.86353C40.3319 7.30878 39.1283 7.05179 37.9205 7.11955L41.0919 2.62533C41.3872 2.22074 41.5541 1.96817 41.5541 1.77333V0.610117C41.5551 0.56385 41.5464 0.518353 41.5284 0.475581C41.5109 0.432861 41.4847 0.393842 41.4514 0.361609C41.418 0.329427 41.379 0.304237 41.3358 0.287838C41.2922 0.271439 41.246 0.264139 41.1997 0.266246H35.0891C35.0439 0.264653 34.9982 0.272621 34.9561 0.289329C34.9134 0.306037 34.8749 0.331381 34.8426 0.363665C34.8102 0.395898 34.7851 0.434146 34.7681 0.47661C34.7512 0.519022 34.7435 0.564518 34.745 0.610117V1.96812C34.744 2.01418 34.7527 2.05963 34.7702 2.10219C34.7876 2.14476 34.8138 2.18316 34.8472 2.21514C34.8801 2.24711 34.9191 2.27236 34.9622 2.28845C35.0053 2.30454 35.0516 2.31153 35.0978 2.30901H38.2913L34.6207 7.54022C34.4549 7.82143 34.3773 8.14561 34.3968 8.47149Z" fill="white"/>
</svg>
