<svg width="32" height="32" viewBox="0 0 32 32" fill="none" xmlns="http://www.w3.org/2000/svg">
<path d="M15.9998 17.3332C16.7976 17.3331 17.5771 17.5716 18.2383 18.018C18.8994 18.4644 19.412 19.0983 19.7102 19.8382C20.0083 20.5781 20.0784 21.3903 19.9114 22.1704C19.7445 22.9505 19.3481 23.6628 18.7732 24.2158L16.2265 26.6665H19.9998V29.3332H11.9998V27.0345L16.9238 22.2945C17.0827 22.1418 17.2013 21.9521 17.2689 21.7423C17.3365 21.5326 17.351 21.3093 17.3113 21.0926C17.2715 20.8758 17.1786 20.6723 17.0409 20.5002C16.9032 20.3281 16.725 20.1929 16.5223 20.1065C16.3195 20.0202 16.0985 19.9854 15.879 20.0054C15.6596 20.0254 15.4485 20.0994 15.2646 20.221C15.0808 20.3425 14.9299 20.5077 14.8255 20.7018C14.7212 20.8959 14.6665 21.1128 14.6665 21.3332H11.9998C11.9998 20.2723 12.4213 19.2549 13.1714 18.5047C13.9216 17.7546 14.939 17.3332 15.9998 17.3332ZM23.9998 17.3332V22.6665H26.6665V17.3332H29.3332V29.3332H26.6665V25.3332H21.3332V17.3332H23.9998ZM5.33317 15.9998C5.33153 17.5993 5.69028 19.1786 6.38277 20.6203C7.07526 22.0621 8.0837 23.3293 9.33317 24.3278V27.5492C7.30545 26.3793 5.62169 24.6958 4.45136 22.6683C3.28102 20.6409 2.66542 18.3409 2.66651 15.9998H5.33317ZM15.9998 2.66651C22.9132 2.66651 28.5985 7.92918 29.2665 14.6665H26.5838C26.3241 12.6066 25.4688 10.6672 24.1229 9.08618C22.7771 7.50518 20.9991 6.35128 19.0071 5.76596C17.015 5.18064 14.8954 5.18935 12.9083 5.79102C10.9211 6.39269 9.15266 7.56117 7.81984 9.15318L10.6665 11.9998H2.66651V3.99984L5.92917 7.26118C7.17969 5.81742 8.72636 4.6598 10.4641 3.86698C12.2018 3.07416 14.0898 2.66473 15.9998 2.66651Z" fill="#1AADB6"/>
</svg>
