<svg width="32" height="32" viewBox="0 0 32 32" fill="none" xmlns="http://www.w3.org/2000/svg">
<path d="M27.4265 19.8132L29.3332 17.9065L27.4265 15.9998L22.6665 20.7598L11.2398 9.33317L15.9998 4.57317L14.0932 2.6665L12.1865 4.57317L10.2798 2.6665L7.4265 5.51984L5.51984 3.61317L3.61317 5.51984L5.51984 7.4265L2.6665 10.2798L4.57317 12.1865L2.6665 14.0932L4.57317 15.9998L9.33317 11.2398L20.7598 22.6665L15.9998 27.4265L17.9065 29.3332L19.8132 27.4265L21.7198 29.3332L24.5732 26.4798L26.4798 28.3865L28.3865 26.4798L26.4798 24.5732L29.3332 21.7198L27.4265 19.8132Z" fill="#1AADB6"/>
</svg>
