<svg width="32" height="32" viewBox="0 0 32 32" fill="none" xmlns="http://www.w3.org/2000/svg">
<path fill-rule="evenodd" clip-rule="evenodd" d="M2.6665 16.0201C2.6665 8.99618 8.27984 2.66669 16.0265 2.66669C23.5998 2.66669 29.3332 8.876 29.3332 15.98C29.3332 24.219 22.6132 29.3334 15.9998 29.3334C13.8132 29.3334 11.3865 28.7458 9.43984 27.5974C8.75984 27.1835 8.1865 26.8763 7.45317 27.1167L4.75984 27.9179C4.07984 28.1316 3.4665 27.5974 3.6665 26.8763L4.55984 23.8852C4.7065 23.4712 4.67984 23.0306 4.4665 22.6834C3.31984 20.5735 2.6665 18.2634 2.6665 16.0201ZM14.2665 16.02C14.2665 16.9681 15.0265 17.7293 15.9732 17.7426C16.9198 17.7426 17.6798 16.9681 17.6798 16.0334C17.6798 15.0853 16.9198 14.3242 15.9732 14.3242C15.0398 14.3108 14.2665 15.0853 14.2665 16.02ZM20.4132 16.0334C20.4132 16.9681 21.1732 17.7426 22.1198 17.7426C23.0665 17.7426 23.8265 16.9681 23.8265 16.0334C23.8265 15.0853 23.0665 14.3242 22.1198 14.3242C21.1732 14.3242 20.4132 15.0853 20.4132 16.0334ZM9.8265 17.7426C8.89317 17.7426 8.11984 16.9681 8.11984 16.0334C8.11984 15.0853 8.87984 14.3242 9.8265 14.3242C10.7732 14.3242 11.5332 15.0853 11.5332 16.0334C11.5332 16.9681 10.7732 17.7293 9.8265 17.7426Z" fill="#1AADB6"/>
</svg>
