<svg width="32" height="32" viewBox="0 0 32 32" fill="none" xmlns="http://www.w3.org/2000/svg">
<path d="M10.8002 17.7866L14.5735 14.0133L6.32017 5.77328C5.68017 5.13328 4.5735 5.30661 4.1735 6.13328C3.22683 8.11994 3.5735 10.5599 5.2135 12.2133L10.8002 17.7866ZM19.8402 15.3733C21.8802 16.3199 24.7468 15.6533 26.8668 13.5333C29.4135 10.9866 29.9068 7.33328 27.9468 5.37328C26.0002 3.42661 22.3468 3.90661 19.7868 6.45328C17.6668 8.57328 17.0002 11.4399 17.9468 13.4799L5.86683 25.5599C5.61753 25.8092 5.47747 26.1474 5.47747 26.4999C5.47747 26.8525 5.61753 27.1906 5.86683 27.4399C6.11614 27.6892 6.45426 27.8293 6.80683 27.8293C7.1594 27.8293 7.49753 27.6892 7.74683 27.4399L16.0002 19.2133L24.2402 27.4533C24.3636 27.5767 24.5102 27.6746 24.6714 27.7414C24.8327 27.8083 25.0056 27.8426 25.1802 27.8426C25.3547 27.8426 25.5276 27.8083 25.6889 27.7414C25.8502 27.6746 25.9967 27.5767 26.1202 27.4533C26.2436 27.3298 26.3415 27.1833 26.4083 27.022C26.4751 26.8607 26.5095 26.6879 26.5095 26.5133C26.5095 26.3387 26.4751 26.1658 26.4083 26.0046C26.3415 25.8433 26.2436 25.6967 26.1202 25.5733L17.8802 17.3333L19.8402 15.3733Z" fill="#1AADB6"/>
</svg>
