<svg width="32" height="32" viewBox="0 0 32 32" fill="none" xmlns="http://www.w3.org/2000/svg">
<g clip-path="url(#clip0_782_1000)">
<path d="M16.0003 31.3332C24.4687 31.3332 31.3337 24.4682 31.3337 15.9998C31.3337 7.53147 24.4687 0.666504 16.0003 0.666504C7.53196 0.666504 0.666992 7.53147 0.666992 15.9998C0.666992 24.4682 7.53196 31.3332 16.0003 31.3332Z" fill="#1AADB6"/>
<path d="M11.334 16.6665C12.4386 16.6665 13.334 15.7711 13.334 14.6665C13.334 13.5619 12.4386 12.6665 11.334 12.6665C10.2294 12.6665 9.33398 13.5619 9.33398 14.6665C9.33398 15.7711 10.2294 16.6665 11.334 16.6665Z" stroke="white" stroke-miterlimit="10" stroke-linecap="round" stroke-linejoin="round"/>
<path d="M7.33398 10V22M7.33398 22V16.6667H24.6673V22H7.33398ZM24.6673 19.3333H7.33398M23.334 16.6667H14.6673V12.6667H19.49C20.5095 12.6667 21.4872 13.0717 22.2081 13.7925C22.929 14.5134 23.334 15.4912 23.334 16.5107V16.6667Z" stroke="white" stroke-miterlimit="10" stroke-linecap="round" stroke-linejoin="round"/>
</g>
<defs>
<clipPath id="clip0_782_1000">
<rect width="32" height="32" fill="white"/>
</clipPath>
</defs>
</svg>
