<svg width="32" height="32" viewBox="0 0 32 32" fill="none" xmlns="http://www.w3.org/2000/svg">
<path d="M25.3333 6.66667V25.3333H6.66667V6.66667H25.3333ZM25.3333 4H6.66667C5.2 4 4 5.2 4 6.66667V25.3333C4 26.8 5.2 28 6.66667 28H25.3333C26.8 28 28 26.8 28 25.3333V6.66667C28 5.2 26.8 4 25.3333 4ZM13.3333 24V18.6667H14.6667V15.3333C14.6667 13.8667 13.4667 12.6667 12 12.6667H10.6667C9.2 12.6667 8 13.8667 8 15.3333V18.6667H9.33333V24H13.3333ZM11.3333 11.3333C11.7754 11.3333 12.1993 11.1577 12.5118 10.8452C12.8244 10.5326 13 10.1087 13 9.66667C13 9.22464 12.8244 8.80072 12.5118 8.48816C12.1993 8.17559 11.7754 8 11.3333 8C10.8913 8 10.4674 8.17559 10.1548 8.48816C9.84226 8.80072 9.66667 9.22464 9.66667 9.66667C9.66667 10.1087 9.84226 10.5326 10.1548 10.8452C10.4674 11.1577 10.8913 11.3333 11.3333 11.3333ZM24 14.6667L20.6667 9.33333L17.3333 14.6667H24ZM17.3333 17.3333L20.6667 22.6667L24 17.3333H17.3333Z" fill="#1AADB6"/>
</svg>
